<svg width="25" height="14" viewBox="0 0 25 14" fill="none" xmlns="http://www.w3.org/2000/svg">
<path d="M13.5604 14C5.54505 14 0.973208 8.74474 0.782715 0H4.79773C4.92961 6.41842 7.88959 9.13714 10.2341 9.6977V0H14.0147V5.53553C16.3299 5.2973 18.7624 2.77477 19.583 0H23.3635C23.0543 1.43908 22.4379 2.80165 21.5529 4.0025C20.6679 5.20335 19.5334 6.21663 18.2202 6.97898C19.686 7.67555 20.9807 8.6615 22.0188 9.87175C23.057 11.082 23.8149 12.489 24.2427 14H20.0812C19.6971 12.6876 18.9166 11.5128 17.8375 10.6228C16.7583 9.73284 15.4285 9.16727 14.0147 8.997V14H13.5604Z" fill="white"/>
</svg>
